<svg width="108" height="108" viewBox="0 0 108 108" fill="none" xmlns="http://www.w3.org/2000/svg">
<path d="M108 0V108L62.8496 62.8496L66.8438 58.8555C68.6541 57.0451 69.4771 54.9052 68.9834 52.1074C73.0979 55.5636 76.7186 57.5385 80.1748 57.7031C83.6311 57.8677 87.0872 56.3864 90.708 52.7656C93.3414 50.1323 94.8227 47.0051 94.9873 43.5488C96.1394 43.0551 97.2918 42.2326 98.2793 41.2451C99.596 39.9284 100.583 38.2821 101.077 36.4717C99.7606 35.1551 98.444 34.1676 96.9629 33.6738C95.6462 33.0155 93.8354 32.5216 91.5312 32.1924C90.2146 30.2174 88.7332 28.4071 86.9229 26.5967C84.7832 24.4571 82.6435 22.9754 80.5039 21.4941C80.1747 19.1901 79.6812 17.3796 79.1875 15.8984C78.6938 14.4173 77.7062 13.1007 76.3896 11.7842C74.5792 12.2779 72.9329 13.2653 71.6162 14.582C70.6288 15.5695 69.9709 16.5574 68.9834 17.874C65.5271 18.0386 62.4 19.52 59.7666 22.1533C56.1457 25.7742 54.4999 29.3948 54.8291 32.6865C55.1583 35.9782 56.9686 39.7634 60.4248 43.8779C58.7791 43.5488 56.9685 43.7134 55.4873 44.8652C54.1707 44.2069 53.1828 43.549 52.1953 42.5615C51.3724 41.7386 50.8785 40.9157 50.7139 40.0928C50.5493 39.2699 50.3853 38.4469 50.5498 37.624C50.5498 36.6365 50.7143 35.8132 50.8789 34.9902C51.0434 34.1674 50.8784 33.3443 50.7139 32.5215C50.5493 31.6987 50.0556 30.876 49.3975 30.2178C48.7391 29.5594 48.4102 29.2304 48.0811 29.5596C47.9165 29.7242 47.9165 30.0531 48.0811 30.5469C48.0811 31.2051 48.2451 31.6991 48.2451 32.3574C48.2451 33.0156 48.2451 33.3447 48.2451 33.6738C48.2451 34.6613 47.9156 35.9778 47.4219 37.1299C46.1052 40.4216 46.7636 43.3847 49.2324 45.8535C49.5616 46.1827 50.22 46.8411 51.7012 47.9932L49.8467 49.8467L0 0H108Z" fill="#827B8F"/>
</svg>
