<svg width="266" height="47" viewBox="0 0 266 47" fill="none" xmlns="http://www.w3.org/2000/svg">
<path d="M220.628 34.7003V10.2303H232.3C233.738 10.2303 236.585 11.4605 237.746 12.3499C242.834 16.2482 243.308 25.3847 239.756 30.4035C235.413 36.5368 227.073 34.2498 220.628 34.7003ZM225.941 30.3573H231.012C231.74 30.3573 233.466 29.5429 234.067 29.0636C237.503 26.3376 237.503 17.9866 233.721 15.5725C233.235 15.2664 231.688 14.5791 231.174 14.5791H225.941V30.3573Z" fill="white"/>
<path d="M63.8878 10.2303C64.5173 10.2997 65.7243 10.7328 66.3307 11.01C72.2735 13.7302 71.9963 22.5779 65.7301 24.657L71.3783 34.706H65.6608L60.7518 25.6908H57.5349V34.706H52.2217V10.2303H63.8936H63.8878ZM57.5292 21.5037H62.7616C62.8771 21.5037 63.5586 21.1341 63.7318 21.0244C65.8803 19.7307 65.8803 16.1847 63.7318 14.8968C63.5586 14.7928 62.8771 14.4174 62.7616 14.4174H57.5292V21.4979V21.5037Z" fill="white"/>
<path d="M249.483 10.2303V21.6597L258.579 10.2303H264.614L256.079 20.6028L265.261 34.7003H259.226L252.463 24.5646L249.483 27.8623V34.7003H244.17V10.2303H249.483Z" fill="white"/>
<path d="M115.922 17.0336L119.063 28.9481L122.032 17.1087L126.854 17.051L129.909 28.5611L130.25 28.7864L133.392 17.0336H138.139L132.272 34.9139L127.536 34.8851L124.377 23.6348L121.229 34.8966L116.262 34.8908L110.608 17.0336H115.922Z" fill="white"/>
<path d="M197.707 10.2303V34.7003H192.878L192.717 33.089C188.795 36.6928 182.512 35.4799 180.346 30.5709C178.81 27.0942 179.006 22.0639 181.53 19.0839C184.054 16.1038 189.523 15.2953 192.561 18.1194V10.2303H197.712H197.707ZM188.01 20.418C184.129 20.9782 183.673 27.1115 185.561 29.7046C187.051 31.7491 190.926 31.5989 192.52 29.7624L192.549 21.9138C191.718 20.4353 189.569 20.1985 188.01 20.4237V20.418Z" fill="white"/>
<path d="M108.737 10.2303V34.7003H104.07L103.909 33.089L101.494 34.6136C93.0395 37.4955 88.4827 28.6073 91.2318 21.4517C93.1145 16.5543 99.5482 14.5791 103.591 18.1136V10.2246H108.742L108.737 10.2303ZM103.55 29.9992L103.504 21.4979C101.494 19.8751 98.0582 19.7885 96.5277 22.087C95.4535 23.6983 95.4189 26.8112 96.1004 28.5785C97.3363 31.8011 101.05 31.7722 103.55 29.9992Z" fill="white"/>
<path d="M216.857 15.5436C214.131 14.5618 210.088 13.4068 207.275 14.4117C205 15.2202 205.023 17.7094 206.958 18.9279C210.267 21.0186 216.256 20.1408 217.746 25.3616C220.403 34.6945 209.453 36.635 202.771 34.3826C202.268 34.2094 200.57 33.5163 200.281 33.1698C199.785 32.5692 200.53 29.6642 200.443 28.7459C201.234 29.1213 201.991 29.5256 202.817 29.8317C205.046 30.6633 208.24 31.2351 210.55 30.5594C212.86 29.8837 213.478 27.227 211.278 25.8756C207.212 23.3865 200.599 24.5069 200.125 17.5476C199.496 8.3476 211.445 8.57861 217.278 11.345L216.862 15.5378L216.857 15.5436Z" fill="white"/>
<path d="M76.7994 27.4581C77.6599 32.5923 84.6711 31.4603 87.9861 29.5545L87.6627 33.5799C82.2743 36.5368 73.6056 35.7976 72.0174 28.7864C70.2848 21.1341 75.0841 14.5387 83.2735 16.7276C86.0456 17.4668 88.7138 20.418 88.7138 23.3634V27.227L88.4712 27.4696H76.7994V27.4581ZM83.8799 24.2354C84.3477 18.9337 76.4875 18.9857 76.7994 24.2354H83.8799Z" fill="white"/>
<path d="M167.184 16.3984C174.865 15.6707 178.89 21.5095 177.25 28.7171C175.153 37.9287 160.022 37.3396 159.167 27.2155C158.694 21.573 161.206 16.9643 167.184 16.3984ZM167.992 20.2563C164.388 20.5162 164.088 24.1546 164.313 27.0596C164.764 32.7887 171.758 32.6154 172.352 27.5216C172.739 24.2181 172.254 19.9502 167.992 20.262V20.2563Z" fill="white"/>
<path d="M146.916 16.3984C154.684 15.6014 158.94 21.7925 156.971 29.0289C154.614 37.6803 140.725 37.3049 139.108 27.972C138.109 22.2141 140.783 17.0221 146.916 16.3926V16.3984ZM147.719 20.2563C143.745 20.6201 143.422 26.0142 144.571 28.9481C145.836 32.1707 150.606 32.0956 151.808 28.8557C153.009 25.6157 152.385 19.8289 147.719 20.2563Z" fill="white"/>
<g clip-path="url(#clip0_471_9097)">
<path d="M11.0645 7.1415L20.0422 13.1843L29.2844 7.31953L20.0422 1.27672L11.0645 7.1415Z" fill="#F3B15C"/>
<path d="M10.708 38.6018L20.2198 32.3809L29.4621 38.6933L20.1334 44.9142L10.708 38.6018Z" fill="#F3B15C"/>
<path d="M1.19854 13.4489L10.1763 19.6748L5.46615 22.7827L10.2628 26.3382L1.02051 32.381L1.19854 13.4489Z" fill="#D54B40"/>
<path d="M30.4389 19.4968L39.0606 13.4489V32.381L29.8184 25.8956L35.0219 22.7267L30.4389 19.4968Z" fill="#D54B40"/>
<path d="M20.041 13.1843L29.2833 7.31953L39.0596 13.4488L30.4379 19.4967L20.041 13.1843Z" fill="#E47947"/>
<path d="M1.2002 13.4488L11.063 7.14153L20.0408 13.1843L10.1779 19.6748L1.2002 13.4488Z" fill="#E47947"/>
<path d="M1.02051 32.3809L10.2628 26.3381L20.2171 32.3809L10.7053 38.6018L1.02051 32.3809Z" fill="#E47947"/>
<path d="M29.819 25.8956L39.0613 32.3809L29.463 38.6933L20.2207 32.3809L29.819 25.8956Z" fill="#E47947"/>
<path d="M20.0407 13.1843L35.0206 22.7267L20.2187 32.3809L5.46777 22.7826L20.0407 13.1843Z" fill="#802C43"/>
<path d="M20.0817 46.1248L0 33.088V12.8028L20.0817 0L40.0514 12.8028V33.0829L20.0817 46.1197V46.1248ZM2.03462 31.9842L20.0817 43.6985L38.0168 31.9842V13.9168L20.0817 2.41611L2.03462 13.9168V31.9842Z" fill="black"/>
<path d="M38.4337 12.5401L29.626 19.0053L30.8299 20.6455L39.6377 14.1803L38.4337 12.5401Z" fill="black"/>
<path d="M29.117 39.5224L3.49609 22.9505L29.0051 6.37344L30.114 8.08252L7.23979 22.9454L30.2259 37.8134L29.117 39.5224Z" fill="black"/>
<path d="M11.0524 39.6293L9.93848 37.9253L33.1484 22.7368L10.0555 7.9757L11.1542 6.26154L36.8921 22.7165L11.0524 39.6293Z" fill="black"/>
<path d="M1.58225 12.509L0.449219 14.1989L9.92558 20.5524L11.0586 18.8625L1.58225 12.509Z" fill="black"/>
<path d="M10.0608 25.5452L0.47168 31.6801L1.56817 33.394L11.1573 27.2591L10.0608 25.5452Z" fill="black"/>
<path d="M30.3681 25.1267L29.1895 26.7852L38.4437 33.3618L39.6223 31.7034L30.3681 25.1267Z" fill="black"/>
</g>
<defs>
<clipPath id="clip0_471_9097">
<rect width="40.0514" height="46.1248" fill="white"/>
</clipPath>
</defs>
</svg>
